# xmcd
#
# Track frame offsets:
#	150
#	23978
#	45334
#	63079
#	85355
#	102904
#	108059
#	124034
#	142043
#	161514
#	176589
#	190521
#	217511
#
# Disc length: 3119 seconds
#
# Revision: 0
# Processed by: cddbd v1.5.2PL0 Copyright (c) Steve Scherf et al.
# Submitted via: FairStars CD Ripper 1.90
#
DISCID=9c0c2d0d
DTITLE=Erica Campbell - Help
DYEAR=2014
DGENRE=R&B
TTITLE0=The Question
TTITLE1=You Are
TTITLE2=A Little More Jesus
TTITLE3=Help
TTITLE4=I'm a Fan
TTITLE5=The Atkins House
TTITLE6=Eddie
TTITLE7=Looking Like
TTITLE8=P.O.G.
TTITLE9=More Than a Lover
TTITLE10=Nobody Else
TTITLE11=All I Need Is You
TTITLE12=Changes
EXTD=
EXTT0=
EXTT1=
EXTT2=
EXTT3=
EXTT4=
EXTT5=
EXTT6=
EXTT7=
EXTT8=
EXTT9=
EXTT10=
EXTT11=
EXTT12=
PLAYORDER=
